<?xml version="1.0" encoding="UTF-8" standalone="no"?>
<svg
   xmlns:dc="http://purl.org/dc/elements/1.1/"
   xmlns:cc="http://creativecommons.org/ns#"
   xmlns:rdf="http://www.w3.org/1999/02/22-rdf-syntax-ns#"
   xmlns:svg="http://www.w3.org/2000/svg"
   xmlns="http://www.w3.org/2000/svg"
   xmlns:sodipodi="http://sodipodi.sourceforge.net/DTD/sodipodi-0.dtd"
   xmlns:inkscape="http://www.inkscape.org/namespaces/inkscape"
   width="232.96217mm"
   height="69.491165mm"
   viewBox="0 0 232.96217 69.491165"
   version="1.1"
   id="svg8"
   inkscape:export-filename="/usr/lyndsay/src/echo.go/logo.png"
   inkscape:export-xdpi="96"
   inkscape:export-ydpi="96"
   inkscape:version="1.0.2 (e86c870879, 2021-01-15)"
   sodipodi:docname="logo.svg">
  <defs
     id="defs2" />
  <sodipodi:namedview
     id="base"
     pagecolor="#ffffff"
     bordercolor="#666666"
     borderopacity="1.0"
     inkscape:pageopacity="0.0"
     inkscape:pageshadow="2"
     inkscape:zoom="0.39821128"
     inkscape:cx="449.65559"
     inkscape:cy="230.62845"
     inkscape:document-units="mm"
     inkscape:current-layer="layer1"
     inkscape:document-rotation="0"
     showgrid="false"
     fit-margin-top="5"
     fit-margin-left="5"
     fit-margin-right="5"
     fit-margin-bottom="5"
     inkscape:window-width="1280"
     inkscape:window-height="684"
     inkscape:window-x="0"
     inkscape:window-y="26"
     inkscape:window-maximized="1" />
  <metadata
     id="metadata5">
    <rdf:RDF>
      <cc:Work
         rdf:about="">
        <dc:format>image/svg+xml</dc:format>
        <dc:type
           rdf:resource="http://purl.org/dc/dcmitype/StillImage" />
        <dc:title></dc:title>
      </cc:Work>
    </rdf:RDF>
  </metadata>
  <g
     inkscape:label="Layer 1"
     inkscape:groupmode="layer"
     id="layer1"
     transform="translate(361.14091,-69.044134)">
    <circle
       style="fill:#74d0df;fill-opacity:1;fill-rule:evenodd;stroke:#000000;stroke-width:2;stroke-miterlimit:4;stroke-dasharray:none"
       id="path10"
       cx="-326.39532"
       cy="103.78972"
       r="28.745584" />
    <circle
       style="fill:#ffffff;fill-opacity:1;fill-rule:evenodd;stroke-width:0.0948486"
       id="circle30"
       cx="-337.49985"
       cy="97.191376"
       r="10.304853" />
    <circle
       style="fill:#ffffff;fill-opacity:1;fill-rule:evenodd;stroke-width:0.0948486"
       id="circle32"
       cx="-314.64978"
       cy="96.54644"
       r="10.304853" />
    <circle
       style="fill:#000000;fill-opacity:1;fill-rule:evenodd;stroke-width:0.054072"
       id="circle34"
       cx="-310.2196"
       cy="92.116257"
       r="5.87467"
       transform="translate(-2.5004157,3.3598132)" />
    <circle
       style="fill:#000000;fill-opacity:1;fill-rule:evenodd;stroke-width:0.054072"
       id="circle36"
       cx="-339.4173"
       cy="98.157463"
       r="5.87467" />
    <path
       style="fill:#ffffff;stroke:#000000;stroke-width:2;stroke-linecap:butt;stroke-linejoin:miter;stroke-miterlimit:4;stroke-dasharray:none;stroke-opacity:1"
       d="m -331.47379,117.16596 c -0.0926,1.05192 -1.34622,5.86228 -0.0883,6.48709 0.56999,0.2831 1.16959,0.11048 1.77024,0.0319 0.4721,-0.0617 1.01759,-0.081 1.37975,-0.4309 0.64926,-0.62731 1.00794,-1.83967 1.16891,-2.74076 0.0718,-0.40186 0.22735,-1.31448 0.29416,-1.71722 0.0204,-0.12317 0.0188,-0.24295 0.0259,-0.36663 0.003,-0.0541 0.0103,-0.2166 0.0103,-0.16237 v 0.0585 c 0.0116,0.1355 0.0319,0.27054 0.0351,0.40651 0.0228,0.97212 -0.21519,2.03106 0.2499,2.94185 0.1896,0.3713 0.61846,0.46443 0.95803,0.64369 0.17391,0.0918 0.34121,0.2008 0.52065,0.28195 0.42137,0.19056 1.14046,0.13528 1.55157,-0.0532 0.70072,-0.32126 1.076,-1.11939 1.44224,-1.74489 0.14981,-0.25589 0.32438,-0.5031 0.44244,-0.77455"
       id="path872"
       sodipodi:nodetypes="cssssscsccsssssc" />
    <path
       id="ellipse40"
       style="fill:#f4d4a5;fill-opacity:1;fill-rule:evenodd;stroke:#000000;stroke-width:2;stroke-miterlimit:4;stroke-dasharray:none;stroke-opacity:1"
       d="m -317.54072,119.79812 c 0,2.54909 -5.91617,-1.87631 -9.16066,-1.87631 -3.24449,0 -9.92488,3.56665 -9.92488,1.01756 0,-2.54909 6.62582,-4.49596 9.8703,-4.49596 3.24449,0 9.21524,2.80563 9.21524,5.35471 z"
       sodipodi:nodetypes="sssss" />
    <ellipse
       style="fill:#000000;fill-opacity:1;fill-rule:evenodd;stroke-width:0.0479283"
       id="circle38"
       cx="-326.49619"
       cy="112.18748"
       rx="5.87467"
       ry="4.6155334" />
    <text
       xml:space="preserve"
       style="font-style:normal;font-weight:normal;font-size:10.5833px;line-height:1.25;font-family:sans-serif;fill:#000000;fill-opacity:1;stroke:none;stroke-width:0.264583"
       x="-287.56158"
       y="94.107246"
       id="text876"><tspan
         sodipodi:role="line"
         id="tspan874"
         x="-287.56158"
         y="94.107246"
         style="font-style:normal;font-variant:normal;font-weight:normal;font-stretch:normal;font-family:Arimo;-inkscape-font-specification:Arimo;stroke-width:0.264583">ECHO.GO</tspan><tspan
         sodipodi:role="line"
         x="-287.56158"
         y="107.4329"
         style="font-style:normal;font-variant:normal;font-weight:normal;font-stretch:normal;font-family:Arimo;-inkscape-font-specification:Arimo;stroke-width:0.264583"
         id="tspan878">THE <tspan
   style="font-style:italic"
   id="tspan882">SIMPLE</tspan> OOM EXCEPTION</tspan><tspan
         sodipodi:role="line"
         x="-287.56158"
         y="120.75855"
         style="font-style:normal;font-variant:normal;font-weight:normal;font-stretch:normal;font-family:Arimo;-inkscape-font-specification:Arimo;stroke-width:0.264583"
         id="tspan880">GENERATOR</tspan></text>
  </g>
</svg>
